<?xml version="1.0" encoding="utf-8"?>
<svg viewBox="219.204 338.762 100 100" xmlns="http://www.w3.org/2000/svg">
  <defs>
    <linearGradient id="gradient-5" x1="70.9087" y1="45.3529" x2="66.2274" y2="46.0196" gradientUnits="userSpaceOnUse" gradientTransform="matrix(1, 0, 0, 1, 219.204147, 338.762482)">
      <stop stop-color="#9D30F2"/>
      <stop offset="1" stop-color="#423EF4"/>
    </linearGradient>
    <linearGradient id="gradient-6" x1="57.9087" y1="53.2353" x2="53.3409" y2="54.211" gradientUnits="userSpaceOnUse" gradientTransform="matrix(1, 0, 0, 1, 219.204147, 338.762482)">
      <stop stop-color="#9D30F2"/>
      <stop offset="1" stop-color="#423EF4"/>
    </linearGradient>
    <linearGradient id="gradient-7" x1="45.9087" y1="61.1183" x2="41.863" y2="62.8375" gradientUnits="userSpaceOnUse" gradientTransform="matrix(1, 0, 0, 1, 219.204147, 338.762482)">
      <stop stop-color="#9D30F2"/>
      <stop offset="1" stop-color="#423EF4"/>
    </linearGradient>
    <linearGradient id="gradient-8" x1="33.9087" y1="59.1471" x2="29.632" y2="60.6087" gradientUnits="userSpaceOnUse" gradientTransform="matrix(1, 0, 0, 1, 219.204147, 338.762482)">
      <stop stop-color="#9D30F2"/>
      <stop offset="1" stop-color="#423EF4"/>
    </linearGradient>
    <linearGradient id="gradient-9" x1="63.178" y1="42.351" x2="47.0233" y2="63.1705" gradientUnits="userSpaceOnUse" gradientTransform="matrix(1, 0, 0, 1, 219.204147, 338.762482)">
      <stop stop-color="#9D30F2"/>
      <stop offset="1" stop-color="#423EF4"/>
    </linearGradient>
  </defs>
  <circle cx="269.204" cy="388.762" r="50" fill="#ECECFE"/>
  <path d="M 289.204 383.762 L 288.204 383.762 C 287.261 383.762 286.79 383.762 286.497 384.055 C 286.204 384.348 286.204 384.82 286.204 385.762 L 286.204 405.762 C 286.204 406.705 286.204 407.177 286.497 407.47 C 286.79 407.762 287.261 407.762 288.204 407.762 L 289.204 407.762 C 290.147 407.762 290.618 407.762 290.911 407.47 C 291.204 407.177 291.204 406.705 291.204 405.762 L 291.204 385.762 C 291.204 384.82 291.204 384.348 290.911 384.055 C 290.618 383.762 290.147 383.762 289.204 383.762 Z" fill="url(#gradient-5)"/>
  <path d="M 276.204 391.762 L 275.204 391.762 C 274.261 391.762 273.79 391.762 273.497 392.055 C 273.204 392.348 273.204 392.82 273.204 393.762 L 273.204 405.762 C 273.204 406.705 273.204 407.177 273.497 407.47 C 273.79 407.762 274.261 407.762 275.204 407.762 L 276.204 407.762 C 277.147 407.762 277.618 407.762 277.911 407.47 C 278.204 407.177 278.204 406.705 278.204 405.762 L 278.204 393.762 C 278.204 392.82 278.204 392.348 277.911 392.055 C 277.618 391.762 277.147 391.762 276.204 391.762 Z" fill="url(#gradient-6)"/>
  <path d="M 264.204 399.762 L 263.204 399.762 C 262.261 399.762 261.79 399.762 261.497 400.055 C 261.204 400.348 261.204 400.82 261.204 401.762 L 261.204 405.805 C 261.204 406.748 261.204 407.22 261.497 407.512 C 261.79 407.805 262.261 407.805 263.204 407.805 L 264.204 407.805 C 265.147 407.805 265.618 407.805 265.911 407.512 C 266.204 407.22 266.204 406.748 266.204 405.805 L 266.204 401.762 C 266.204 400.82 266.204 400.348 265.911 400.055 C 265.618 399.762 265.147 399.762 264.204 399.762 Z" fill="url(#gradient-7)"/>
  <path d="M 252.204 397.762 L 251.204 397.762 C 250.261 397.762 249.79 397.762 249.497 398.055 C 249.204 398.348 249.204 398.82 249.204 399.762 L 249.204 405.762 C 249.204 406.705 249.204 407.177 249.497 407.47 C 249.79 407.762 250.261 407.762 251.204 407.762 L 252.204 407.762 C 253.147 407.762 253.618 407.762 253.911 407.47 C 254.204 407.177 254.204 406.705 254.204 405.762 L 254.204 399.762 C 254.204 398.82 254.204 398.348 253.911 398.055 C 253.618 397.762 253.147 397.762 252.204 397.762 Z" fill="url(#gradient-8)"/>
  <path d="M 291.184 372.213 C 289.67 370.467 287.035 370.266 285.278 371.779 C 284.019 372.869 283.522 374.605 284.019 376.192 L 278.961 379.78 C 277.405 378.055 274.738 377.917 273.013 379.484 C 271.701 380.669 271.278 382.542 271.934 384.182 L 267.214 388.161 C 265.986 386.182 263.394 385.569 261.415 386.796 C 260.536 387.347 259.88 388.193 259.594 389.188 L 255.594 387.569 C 255.266 385.262 253.139 383.664 250.832 383.981 C 248.525 384.299 246.927 386.436 247.244 388.743 C 247.572 391.05 249.7 392.648 252.007 392.331 C 253.647 392.098 255.001 390.934 255.467 389.347 L 259.467 390.966 C 259.774 393.273 261.891 394.892 264.198 394.596 C 266.505 394.299 268.124 392.172 267.828 389.865 L 272.886 385.6 C 274.537 387.241 277.204 387.23 278.844 385.579 C 279.977 384.447 280.358 382.764 279.839 381.24 L 284.845 377.685 C 286.358 379.431 288.993 379.632 290.75 378.118 C 292.506 376.605 292.697 373.97 291.184 372.213 Z" fill="url(#gradient-9)"/>
</svg>