<?xml version="1.0" encoding="utf-8"?>
<svg viewBox="316.956 232.351 100 100" xmlns="http://www.w3.org/2000/svg">
  <defs>
    <linearGradient id="gradient-2" x1="65.7771" y1="30.5441" x2="39.9392" y2="57.2755" gradientUnits="userSpaceOnUse" gradientTransform="matrix(1, 0, 0, 1, 316.95578, 232.350937)">
      <stop stop-color="#FF9C59"/>
      <stop offset="1" stop-color="#FF6C08"/>
    </linearGradient>
    <linearGradient id="gradient-3" x1="31.969" y1="70.9412" x2="32.4759" y2="65.3977" gradientUnits="userSpaceOnUse" gradientTransform="matrix(1, 0, 0, 1, 316.95578, 232.350937)">
      <stop stop-color="#FF9C59"/>
      <stop offset="1" stop-color="#FF6C08"/>
    </linearGradient>
    <linearGradient id="gradient-4" x1="56.5712" y1="42.6912" x2="47.5015" y2="51.2754" gradientUnits="userSpaceOnUse" gradientTransform="matrix(1, 0, 0, 1, 316.95578, 232.350937)">
      <stop stop-color="#FF9C59"/>
      <stop offset="1" stop-color="#FF6C08"/>
    </linearGradient>
  </defs>
  <circle cx="366.956" cy="282.351" r="50" fill="#FFF5F0"/>
  <path d="M 338.956 270.351 C 338.956 266.58 338.956 264.694 340.127 263.523 C 341.299 262.351 343.185 262.351 346.956 262.351 L 386.956 262.351 C 390.727 262.351 392.613 262.351 393.784 263.523 C 394.956 264.694 394.956 266.58 394.956 270.351 L 394.956 299.351 L 338.956 299.351 L 338.956 270.351 Z" fill="url(#gradient-2)"/>
  <path d="M 339.956 268.351 C 339.956 266.465 339.956 265.523 340.542 264.937 C 341.127 264.351 342.07 264.351 343.956 264.351 L 389.956 264.351 C 391.841 264.351 392.784 264.351 393.37 264.937 C 393.956 265.523 393.956 266.465 393.956 268.351 L 393.956 296.351 C 393.956 297.294 393.956 297.765 393.663 298.058 C 393.37 298.351 392.899 298.351 391.956 298.351 L 341.956 298.351 C 341.013 298.351 340.542 298.351 340.249 298.058 C 339.956 297.765 339.956 297.294 339.956 296.351 L 339.956 268.351 Z" fill="#FFF5F0"/>
  <path d="M 398.956 299.351 C 398.956 301.56 397.165 303.351 394.956 303.351 L 338.956 303.351 C 336.747 303.351 334.956 301.56 334.956 299.351 L 398.956 299.351 Z" fill="url(#gradient-3)"/>
  <path fill-rule="evenodd" clip-rule="evenodd" d="M 377.016 275.29 C 377.602 275.876 377.602 276.826 377.016 277.412 L 367.016 287.412 C 366.431 287.997 365.481 287.997 364.895 287.412 L 359.895 282.412 C 359.309 281.826 359.309 280.876 359.895 280.29 C 360.481 279.705 361.431 279.705 362.016 280.29 L 365.956 284.23 L 374.895 275.29 C 375.481 274.705 376.431 274.705 377.016 275.29 Z" fill="url(#gradient-4)"/>
</svg>