<?xml version="1.0" encoding="utf-8"?>
<svg viewBox="117.295 248.444 100 100" xmlns="http://www.w3.org/2000/svg">
  <defs>
    <linearGradient id="gradient-1" x1="63.178" y1="28.6618" x2="33.8812" y2="48.688" gradientUnits="userSpaceOnUse" gradientTransform="matrix(1, 0, 0, 1, 117.295403, 248.444366)">
      <stop stop-color="#30BEF2"/>
      <stop offset="1" stop-color="#3E77F4"/>
    </linearGradient>
  </defs>
  <mask id="mask0" mask-type="alpha" maskUnits="userSpaceOnUse" x="28" y="28" width="45" height="45">
    <circle cx="50.5" cy="50.5" r="22.5" fill="#C4C4C4"/>
  </mask>
  <circle cx="167.295" cy="298.444" r="50" fill="#E9F8FF"/>
  <circle cx="167.795" cy="298.944" r="22.5" fill="url(#gradient-1)"/>
  <g transform="matrix(1, 0, 0, 1, 117.295403, 248.444366)" mask="url(#mask0)">
    <path fill-rule="evenodd" clip-rule="evenodd" d="M 62.757 47.08 C 59.57 45.347 56.539 43.749 51.508 43.745 C 46.541 43.926 43.518 45.571 40.364 47.288 L 40.223 47.365 C 36.972 49.133 33.567 50.943 28 50.943 L 28 48.943 C 33.042 48.943 36.077 47.344 39.267 45.608 L 39.452 45.507 C 42.629 43.778 46.004 41.94 51.454 41.746 L 51.49 42.745 L 51.49 41.745 C 57.056 41.745 60.462 43.555 63.713 45.324 L 63.854 45.4 C 67.008 47.117 70.03 48.762 74.998 48.943 C 80.029 48.94 80.546 50.943 74.98 50.943 L 74.98 49.943 L 74.944 50.943 C 69.493 50.748 66.119 48.911 62.942 47.181 L 62.757 47.08 Z" fill="#E9F8FF"/>
    <path fill-rule="evenodd" clip-rule="evenodd" d="M 62.757 36.472 C 59.57 34.738 56.539 33.14 51.508 33.137 C 46.541 33.318 43.518 34.963 40.364 36.68 L 40.223 36.756 C 36.972 38.525 33.567 40.335 28 40.335 L 28 38.335 C 33.042 38.335 36.077 36.735 39.267 35 L 39.452 34.899 C 42.629 33.169 46.004 31.332 51.454 31.137 L 51.49 32.137 L 51.49 31.137 C 57.056 31.137 60.462 32.947 63.713 34.715 L 63.854 34.792 C 67.008 36.509 70.03 38.154 74.998 38.335 C 80.029 38.331 80.546 40.335 74.98 40.335 L 74.98 39.335 L 74.944 40.335 C 69.493 40.14 66.119 38.302 62.942 36.573 L 62.757 36.472 Z" fill="#E9F8FF"/>
    <path fill-rule="evenodd" clip-rule="evenodd" d="M 62.757 56.931 C 59.57 55.197 56.539 53.599 51.508 53.596 C 46.541 53.777 43.518 55.422 40.364 57.138 L 40.223 57.215 C 36.972 58.984 33.567 60.794 28 60.794 L 28 58.794 C 33.042 58.794 36.077 57.194 39.267 55.458 L 39.452 55.358 C 42.629 53.628 46.004 51.791 51.454 51.596 L 51.49 52.595 L 51.49 51.596 C 57.056 51.596 60.462 53.406 63.713 55.174 L 63.854 55.251 C 67.008 56.968 70.03 58.613 74.998 58.794 C 80.029 58.79 80.546 60.794 74.98 60.794 L 74.98 59.794 L 74.944 60.793 C 69.493 60.599 66.119 58.761 62.942 57.032 L 62.757 56.931 Z" fill="#E9F8FF"/>
    <path fill-rule="evenodd" clip-rule="evenodd" d="M 62.757 67.539 C 59.57 65.806 56.539 64.208 51.508 64.204 C 46.541 64.385 43.518 66.03 40.364 67.747 L 40.223 67.824 C 36.972 69.592 33.567 71.402 28 71.402 L 28 69.402 C 33.042 69.402 36.077 67.803 39.267 66.067 L 39.452 65.966 C 42.629 64.237 46.004 62.399 51.454 62.205 L 51.49 63.204 L 51.49 62.204 C 57.056 62.204 60.462 64.014 63.713 65.783 L 63.854 65.859 C 67.008 67.576 70.03 69.221 74.998 69.402 C 80.029 69.399 80.546 71.402 74.98 71.402 L 74.98 70.402 L 74.944 71.402 C 69.493 71.207 66.119 69.37 62.942 67.64 L 62.757 67.539 Z" fill="#E9F8FF"/>
  </g>
</svg>