<?xml version="1.0" encoding="utf-8"?>
<svg viewBox="147.944 75.202 100 100" xmlns="http://www.w3.org/2000/svg">
  <defs>
    <filter id="filter0_d" x="0" y="0" width="213" height="212" filterUnits="userSpaceOnUse" color-interpolation-filters="sRGB">
      <feFlood flood-opacity="0" result="BackgroundImageFix"/>
      <feColorMatrix in="SourceAlpha" type="matrix" values="0 0 0 0 0 0 0 0 0 0 0 0 0 0 0 0 0 0 127 0"/>
      <feOffset dy="20"/>
      <feGaussianBlur stdDeviation="40"/>
      <feColorMatrix type="matrix" values="0 0 0 0 0.0660937 0 0 0 0 0.229391 0 0 0 0 0.5875 0 0 0 0.3 0"/>
      <feBlend mode="normal" in2="BackgroundImageFix" result="effect1_dropShadow"/>
      <feBlend mode="normal" in="SourceGraphic" in2="effect1_dropShadow" result="shape"/>
    </filter>
    <linearGradient id="paint0_linear" x1="119.178" y1="64.6618" x2="89.8812" y2="84.688" gradientUnits="userSpaceOnUse">
      <stop stop-color="#6AD39B"/>
      <stop offset="1" stop-color="#56C287"/>
    </linearGradient>
    <linearGradient id="paint1_linear" x1="109.036" y1="60.1324" x2="103.176" y2="64.1376" gradientUnits="userSpaceOnUse">
      <stop stop-color="#6AD39B"/>
      <stop offset="1" stop-color="#56C287"/>
    </linearGradient>
    <linearGradient id="paint2_linear" x1="87.0356" y1="82.1324" x2="81.1762" y2="86.1376" gradientUnits="userSpaceOnUse">
      <stop stop-color="#6AD39B"/>
      <stop offset="1" stop-color="#56C287"/>
    </linearGradient>
    <linearGradient id="paint3_linear" x1="131.036" y1="82.1324" x2="125.176" y2="86.1376" gradientUnits="userSpaceOnUse">
      <stop stop-color="#6AD39B"/>
      <stop offset="1" stop-color="#56C287"/>
    </linearGradient>
    <linearGradient id="paint4_linear" x1="109.036" y1="103.132" x2="103.176" y2="107.138" gradientUnits="userSpaceOnUse">
      <stop stop-color="#6AD39B"/>
      <stop offset="1" stop-color="#56C287"/>
    </linearGradient>
  </defs>
  <circle cx="197.944" cy="125.202" r="50" fill="#EDFCF5"/>
  <g filter="url(#filter0_d)" transform="matrix(1, 0, 0, 1, 91.944084, 39.202168)">
    <path fill-rule="evenodd" clip-rule="evenodd" d="M128.95 88.0086C128.925 88.3943 128.581 88.6759 128.196 88.6384C127.812 88.601 127.531 88.2587 127.556 87.8729C127.585 87.4192 127.6 86.9614 127.6 86.5C127.6 86.0386 127.585 85.5808 127.556 85.1271C127.531 84.7413 127.812 84.399 128.196 84.3616C128.581 84.3241 128.925 84.6056 128.95 84.9914C128.983 85.49 129 85.993 129 86.5C129 87.007 128.983 87.51 128.95 88.0086ZM127.823 79.2997C127.947 79.666 127.737 80.0573 127.367 80.1693C126.997 80.2814 126.607 80.0719 126.483 79.7059C126.187 78.8355 125.836 77.9905 125.433 77.1751C125.262 76.8285 125.389 76.4047 125.73 76.2222C126.071 76.0397 126.496 76.1675 126.668 76.5138C127.113 77.4102 127.499 78.3405 127.823 79.2997ZM123.441 71.692C123.695 71.983 123.651 72.4249 123.353 72.6703C123.054 72.9157 122.614 72.8717 122.358 72.5813C121.754 71.8936 121.106 71.2456 120.419 70.6415C120.128 70.3864 120.084 69.9462 120.33 69.6475C120.575 69.3487 121.017 69.3047 121.308 69.5593C122.065 70.2219 122.778 70.9346 123.441 71.692ZM116.486 66.3319C116.833 66.5038 116.96 66.929 116.778 67.2698C116.595 67.6106 116.172 67.7378 115.825 67.5667C115.01 67.1643 114.165 66.8131 113.294 66.5173C112.928 66.3929 112.719 66.0032 112.831 65.6332C112.943 65.2632 113.334 65.0531 113.7 65.1767C114.66 65.5005 115.59 65.8872 116.486 66.3319ZM108.009 64.0498C108.394 64.0753 108.676 64.4187 108.638 64.8035C108.601 65.1883 108.259 65.4687 107.873 65.4439C107.419 65.4148 106.961 65.4 106.5 65.4C106.039 65.4 105.581 65.4148 105.127 65.4439C104.741 65.4687 104.399 65.1883 104.362 64.8035C104.324 64.4187 104.606 64.0753 104.991 64.0498C105.49 64.0168 105.993 64 106.5 64C107.007 64 107.51 64.0168 108.009 64.0498ZM99.2997 65.1767C99.666 65.0531 100.057 65.2632 100.169 65.6332C100.281 66.0032 100.072 66.3929 99.7059 66.5173C98.8355 66.8131 97.9905 67.1643 97.1751 67.5667C96.8285 67.7378 96.4047 67.6106 96.2222 67.2698C96.0397 66.929 96.1675 66.5038 96.5138 66.3319C97.4102 65.8872 98.3405 65.5005 99.2997 65.1767ZM91.692 69.5593C91.983 69.3047 92.4249 69.3487 92.6703 69.6475C92.9157 69.9462 92.8717 70.3864 92.5813 70.6415C91.8936 71.2456 91.2456 71.8936 90.6415 72.5813C90.3864 72.8717 89.9462 72.9157 89.6475 72.6703C89.3487 72.4249 89.3047 71.983 89.5593 71.692C90.2219 70.9346 90.9346 70.2219 91.692 69.5593ZM86.3319 76.5138C86.5038 76.1675 86.929 76.0397 87.2698 76.2222C87.6106 76.4047 87.7378 76.8285 87.5667 77.1751C87.1643 77.9905 86.8131 78.8355 86.5173 79.7059C86.3929 80.0719 86.0032 80.2814 85.6332 80.1694C85.2632 80.0573 85.0531 79.666 85.1767 79.2997C85.5005 78.3405 85.8872 77.4102 86.3319 76.5138ZM84.8035 84.3616C84.4187 84.3241 84.0753 84.6057 84.0498 84.9914C84.0168 85.49 84 85.993 84 86.5C84 87.007 84.0168 87.51 84.0498 88.0086C84.0753 88.3944 84.4187 88.6759 84.8035 88.6384C85.1883 88.601 85.4687 88.2587 85.4439 87.8729C85.4148 87.4192 85.4 86.9614 85.4 86.5C85.4 86.0386 85.4148 85.5808 85.4439 85.1271C85.4687 84.7413 85.1883 84.399 84.8035 84.3616ZM85.1767 93.7003C85.0531 93.334 85.2632 92.9427 85.6332 92.8307C86.0032 92.7186 86.3929 92.9281 86.5173 93.2941C86.8131 94.1645 87.1643 95.0095 87.5667 95.8249C87.7378 96.1715 87.6106 96.5953 87.2698 96.7778C86.929 96.9603 86.5038 96.8325 86.3319 96.4862C85.8872 95.5898 85.5005 94.6595 85.1767 93.7003ZM89.5593 101.308C89.3047 101.017 89.3487 100.575 89.6475 100.33C89.9462 100.084 90.3864 100.128 90.6415 100.419C91.2456 101.106 91.8936 101.754 92.5813 102.358C92.8717 102.614 92.9157 103.054 92.6703 103.353C92.4249 103.651 91.983 103.695 91.692 103.441C90.9346 102.778 90.2219 102.065 89.5593 101.308ZM96.5138 106.668C96.1675 106.496 96.0397 106.071 96.2222 105.73C96.4047 105.389 96.8285 105.262 97.1751 105.433C97.9905 105.836 98.8355 106.187 99.7059 106.483C100.072 106.607 100.281 106.997 100.169 107.367C100.057 107.737 99.666 107.947 99.2997 107.823C98.3405 107.499 97.4102 107.113 96.5138 106.668ZM104.991 108.95C104.606 108.925 104.324 108.581 104.362 108.196C104.399 107.812 104.741 107.531 105.127 107.556C105.581 107.585 106.039 107.6 106.5 107.6C106.961 107.6 107.419 107.585 107.873 107.556C108.259 107.531 108.601 107.812 108.638 108.196C108.676 108.581 108.394 108.925 108.009 108.95C107.51 108.983 107.007 109 106.5 109C105.993 109 105.49 108.983 104.991 108.95ZM113.7 107.823C113.334 107.947 112.943 107.737 112.831 107.367C112.719 106.997 112.928 106.607 113.294 106.483C114.165 106.187 115.01 105.836 115.825 105.433C116.172 105.262 116.595 105.389 116.778 105.73C116.96 106.071 116.833 106.496 116.486 106.668C115.59 107.113 114.66 107.499 113.7 107.823ZM121.308 103.441C121.017 103.695 120.575 103.651 120.33 103.353C120.084 103.054 120.128 102.614 120.419 102.358C121.106 101.754 121.754 101.106 122.358 100.419C122.614 100.128 123.054 100.084 123.353 100.33C123.651 100.575 123.695 101.017 123.441 101.308C122.778 102.065 122.065 102.778 121.308 103.441ZM126.668 96.4862C126.496 96.8325 126.071 96.9603 125.73 96.7778C125.389 96.5953 125.262 96.1715 125.433 95.8249C125.836 95.0095 126.187 94.1645 126.483 93.2941C126.607 92.9281 126.997 92.7186 127.367 92.8306C127.737 92.9427 127.947 93.334 127.823 93.7003C127.499 94.6595 127.113 95.5898 126.668 96.4862Z" fill="url(#paint0_linear)"/>
    <circle cx="106.5" cy="64.5" r="4.5" fill="url(#paint1_linear)"/>
    <circle cx="84.5" cy="86.5" r="4.5" fill="url(#paint2_linear)"/>
    <circle cx="128.5" cy="86.5" r="4.5" fill="url(#paint3_linear)"/>
    <circle cx="106.5" cy="107.5" r="4.5" fill="url(#paint4_linear)"/>
  </g>
</svg>