<?xml version="1.0" encoding="utf-8"?>
<svg viewBox="21.679 112.596 216.292 52" xmlns="http://www.w3.org/2000/svg">
  <path fill-rule="evenodd" clip-rule="evenodd" d="M33.8796 50.7838C31.3964 51.5726 28.7452 52 26.0025 52C18.5732 52 11.8767 48.8858 7.13922 43.8888C16.0493 41.1868 24.9644 47.6188 33.8796 50.7838Z" fill="white" transform="matrix(1, 0, 0, 1, 21.678558, 112.596497)"/>
  <path fill-rule="evenodd" clip-rule="evenodd" d="M49.8119 36.4544C47.4559 41.8076 43.3494 46.2194 38.2151 48.957C27.2034 46.769 16.1918 36.5053 5.17506 41.5786C3.33809 39.131 1.92347 36.3425 1.04315 33.3352C17.3011 20.5273 33.5591 46.6519 49.8119 36.4544Z" fill="white" transform="matrix(1, 0, 0, 1, 21.678558, 112.596497)"/>
  <path fill-rule="evenodd" clip-rule="evenodd" d="M51.5624 21.2346C51.8473 22.7815 52 24.3742 52 26.0025C52 28.2262 51.7201 30.3838 51.196 32.4447C34.2765 45.2678 17.3571 16.4106 0.437616 30.7705C0.147568 29.2236 0 27.6309 0 26.0025C0 23.7788 0.279871 21.6213 0.803993 19.5604C17.7235 6.73216 34.6429 35.5894 51.5624 21.2346Z" fill="white" transform="matrix(1, 0, 0, 1, 21.678558, 112.596497)"/>
  <path fill-rule="evenodd" clip-rule="evenodd" d="M46.8199 10.4265C48.6568 12.8741 50.0715 15.6626 50.9518 18.675C34.6989 31.4727 18.4461 5.34807 2.18811 15.5456C4.54411 10.1924 8.65058 5.7806 13.7849 3.04296C24.7966 5.23104 35.8082 15.4947 46.8199 10.4265Z" fill="white" transform="matrix(1, 0, 0, 1, 21.678558, 112.596497)"/>
  <path fill-rule="evenodd" clip-rule="evenodd" d="M26.0025 0C33.4318 0 40.1284 3.1142 44.8658 8.11117C35.9507 10.8081 27.0355 4.37616 18.1204 1.21617C20.6087 0.427439 23.2547 0 26.0025 0Z" fill="white" transform="matrix(1, 0, 0, 1, 21.678558, 112.596497)"/>
  <path d="M69.35 27.5C69.35 30.71 70.37 33.32 72.44 35.33C74.51 37.34 77.12 38.33 80.27 38.33C83.42 38.33 86.03 37.31 88.1 35.27C90.17 33.23 91.22 30.65 91.22 27.5C91.22 24.29 90.17 21.68 88.1 19.67C86.03 17.66 83.42 16.67 80.27 16.67C77.09 16.67 74.48 17.72 72.41 19.79C70.37 21.86 69.35 24.41 69.35 27.5ZM73.25 27.5C73.25 25.34 73.91 23.57 75.23 22.19C76.58 20.81 78.26 20.12 80.27 20.12C82.28 20.12 83.93 20.81 85.28 22.19C86.63 23.57 87.32 25.34 87.32 27.5C87.32 29.63 86.69 31.37 85.4 32.78C84.14 34.19 82.43 34.88 80.27 34.88C78.29 34.88 76.61 34.19 75.26 32.78C73.91 31.37 73.25 29.6 73.25 27.5Z" fill="white" transform="matrix(1, 0, 0, 1, 21.678558, 112.596497)"/>
  <path d="M104.32 33.47C103.33 34.58 102.16 35.12 100.84 35.12C99.7899 35.12 98.8599 34.76 98.0799 34.07C97.3299 33.35 96.9399 32.42 96.9399 31.25C96.9399 30.11 97.2999 29.18 98.0499 28.49C98.7999 27.77 99.6999 27.41 100.69 27.41C102.04 27.41 103.15 27.86 104.05 28.73L105.67 26C104.44 24.77 102.64 24.17 100.24 24.17C98.2299 24.17 96.5499 24.86 95.2299 26.21C93.9099 27.56 93.2499 29.24 93.2499 31.25C93.2499 33.38 93.9099 35.09 95.2599 36.38C96.6099 37.67 98.3799 38.33 100.57 38.33C102.82 38.33 104.83 37.52 105.94 35.99L104.32 33.47Z" fill="white" transform="matrix(1, 0, 0, 1, 21.678558, 112.596497)"/>
  <path d="M118.567 34.22C117.547 35.03 116.287 35.45 114.757 35.45C112.597 35.45 110.977 34.31 110.707 32.3H120.457C120.607 31.82 120.667 31.19 120.667 30.44C120.667 28.61 120.037 27.11 118.807 25.94C117.577 24.77 116.047 24.17 114.277 24.17C112.117 24.17 110.377 24.86 109.087 26.21C107.797 27.56 107.137 29.24 107.137 31.25C107.137 33.38 107.797 35.09 109.117 36.38C110.467 37.67 112.207 38.33 114.397 38.33C116.527 38.33 118.237 37.76 119.557 36.65L118.567 34.22ZM114.127 27.05C116.047 27.05 117.247 28.31 117.217 29.99H110.587C110.977 28.04 112.177 27.05 114.127 27.05Z" fill="white" transform="matrix(1, 0, 0, 1, 21.678558, 112.596497)"/>
  <path d="M124.495 27.98C125.845 27.35 127.045 27.05 128.035 27.05C129.955 27.05 130.645 28.16 130.555 30.53C129.745 29.96 128.725 29.66 127.495 29.66C124.615 29.66 122.575 31.19 122.575 34.04C122.575 36.59 124.285 38.18 126.805 38.18C128.635 38.18 129.985 37.61 130.795 36.44V38H133.795V29.78C133.795 26.06 132.235 24.17 128.395 24.17C126.685 24.17 125.095 24.59 123.625 25.46L124.495 27.98ZM127.945 35.27C126.835 35.27 126.025 34.67 126.025 33.68C126.025 32.6 126.955 32 128.185 32C129.175 32 129.985 32.21 130.555 32.66V34.04C129.985 34.85 129.115 35.27 127.945 35.27Z" fill="white" transform="matrix(1, 0, 0, 1, 21.678558, 112.596497)"/>
  <path d="M140.782 38V28.79C141.652 27.92 142.612 27.5 143.722 27.5C145.732 27.5 146.752 28.55 146.752 30.68V38H150.202V30.08C150.202 26.21 148.342 24.26 144.652 24.26C143.062 24.26 141.772 24.8 140.782 25.85V24.5H137.332V38H140.782Z" fill="white" transform="matrix(1, 0, 0, 1, 21.678558, 112.596497)"/>
  <path d="M161.056 37.97C162.406 38.06 164.356 38.12 166.906 38.12C171.586 38.12 174.706 35.99 174.706 31.82C174.706 29.15 173.206 27.5 171.016 26.93V26.87C173.026 25.94 174.016 24.35 174.016 22.1C174.016 18.98 171.886 16.91 167.116 16.91C165.046 16.91 163.006 16.97 161.056 17.06V37.97ZM167.356 28.97C169.666 28.97 171.016 29.87 171.016 31.64C171.016 33.65 169.726 34.67 167.176 34.67C166.396 34.67 165.586 34.61 164.746 34.52V28.97H167.356ZM167.056 20.36C169.096 20.36 170.356 21.29 170.356 22.97C170.356 24.8 169.066 25.76 167.236 25.76H164.746V20.45C165.406 20.39 166.186 20.36 167.056 20.36Z" fill="white" transform="matrix(1, 0, 0, 1, 21.678558, 112.596497)"/>
  <path d="M178.582 34.28C178.582 36.95 179.632 38.3 181.762 38.3C183.202 38.3 184.402 37.91 185.332 37.16L184.612 34.52C184.102 34.88 183.652 35.06 183.202 35.06C182.422 35.06 182.032 34.34 182.032 32.87V17H178.582V34.28Z" fill="white" transform="matrix(1, 0, 0, 1, 21.678558, 112.596497)"/>
  <path d="M196.307 24.5V33.47C195.467 34.58 194.447 35.12 193.277 35.12C191.567 35.12 190.697 34.1 190.697 32.03V24.5H187.247V32.75C187.247 36.44 189.197 38.33 191.987 38.33C193.787 38.33 195.227 37.67 196.307 36.35V38H199.757V24.5H196.307Z" fill="white" transform="matrix(1, 0, 0, 1, 21.678558, 112.596497)"/>
  <path d="M214.192 34.22C213.172 35.03 211.912 35.45 210.382 35.45C208.222 35.45 206.602 34.31 206.332 32.3H216.082C216.232 31.82 216.292 31.19 216.292 30.44C216.292 28.61 215.662 27.11 214.432 25.94C213.202 24.77 211.672 24.17 209.902 24.17C207.742 24.17 206.002 24.86 204.712 26.21C203.422 27.56 202.762 29.24 202.762 31.25C202.762 33.38 203.422 35.09 204.742 36.38C206.092 37.67 207.832 38.33 210.022 38.33C212.152 38.33 213.862 37.76 215.182 36.65L214.192 34.22ZM209.752 27.05C211.672 27.05 212.872 28.31 212.842 29.99H206.212C206.602 28.04 207.802 27.05 209.752 27.05Z" fill="white" transform="matrix(1, 0, 0, 1, 21.678558, 112.596497)"/>
</svg>