<?xml version="1.0" encoding="utf-8"?>
<svg viewBox="0.003 0 1553.064 714" width="1553.064" height="714" xmlns="http://www.w3.org/2000/svg">
  <defs>
    <linearGradient id="paint0_linear" x1="753.5" y1="10.5001" x2="298.5" y2="714" gradientUnits="userSpaceOnUse" gradientTransform="matrix(0.999987, 0, 0, 1.000016, 690.09214, 186.566742)">
      <stop stop-color="#30BEF2"/>
      <stop offset="1" stop-color="#3E77F4"/>
    </linearGradient>
  </defs>
  <path d="M 248.41 329.215 C 218.154 265.074 203.041 233.004 217.767 209.799 C 232.493 186.564 267.955 186.564 338.85 186.564 L 1395.927 186.564 C 1426.748 186.564 1442.158 186.564 1454.415 194.329 C 1466.672 202.123 1473.247 216.046 1486.396 243.892 L 1728.799 757.883 C 1759.055 822.024 1774.168 854.095 1759.442 877.329 C 1744.716 900.564 1709.283 900.564 1638.359 900.564 L 581.253 900.564 C 550.432 900.564 535.051 900.564 522.794 892.77 C 510.537 885.005 503.932 871.082 490.813 843.206 L 248.41 329.215 Z" fill="url(#paint0_linear)" transform="matrix(1, 0, 0, 1, -212.069794, -186.563812)"/>
</svg>